# xmcd
#
# Track frame offsets: 
#        150
#        14855
#        37677
#        58397
#        77085
#        92801
#        112663
#        129543
#        147773
#        164383
#
# Disc length: 2408 seconds
#
# Revision: 3
# Processed by: cddbd v1.5.2PL0 Copyright (c) Steve Scherf et al.
# Submitted via: ExactAudioCopy v1.3
#
DISCID=7f09660a
DTITLE=Sara Evans - Stronger
DYEAR=2011
DGENRE=Country
TTITLE0=Desperately
TTITLE1=A Little Bit Stronger
TTITLE2=My Heart Can't Tell You No
TTITLE3=Anywhere
TTITLE4=Alone
TTITLE5=Ticket To Ride
TTITLE6=Life Without Losing
TTITLE7=What That Drink Cost Me
TTITLE8=Wildfire
TTITLE9=Born To Fly (Bluegrass Version)
EXTD=
EXTT0=
EXTT1=
EXTT2=
EXTT3=
EXTT4=
EXTT5=
EXTT6=
EXTT7=
EXTT8=
EXTT9=
PLAYORDER=
